<svg xmlns="http://www.w3.org/2000/svg" width="472.762" height="490.001" viewBox="0 0 472.762 490.001">
  <path id="logo" d="M408.444,344.121a72.965,72.965,0,0,0-63.012,36.271l-105.756-69.7a122.125,122.125,0,0,0,.008-111.611l115.648-76.221a72.843,72.843,0,1,0-11.593-16.312L229.1,182.1a122.28,122.28,0,1,0-.009,145.563l108.621,71.594a72.937,72.937,0,1,0,70.732-55.135Zm0-324.121a52.938,52.938,0,1,1-52.939,52.939A53,53,0,0,1,408.444,20ZM130.9,357.154A102.277,102.277,0,1,1,233.176,254.869,102.4,102.4,0,0,1,130.9,357.154ZM408.444,470a52.939,52.939,0,1,1,52.937-52.94A53,53,0,0,1,408.444,470Z" transform="translate(-8.619)" fill="#fb1717"/>
</svg>
